<svg preserveAspectRatio="none" width="100%" height="100%" overflow="visible" style="display: block;" viewBox="0 0 16 16" fill="none" xmlns="http://www.w3.org/2000/svg">
<g id="Group">
<path id="Vector" d="M8 0C6.41775 0 4.87103 0.469192 3.55544 1.34824C2.23985 2.22729 1.21447 3.47672 0.608967 4.93853C0.00346627 6.40034 -0.15496 8.00887 0.153721 9.56072C0.462403 11.1126 1.22433 12.538 2.34315 13.6569C3.46197 14.7757 4.88743 15.5376 6.43928 15.8463C7.99113 16.155 9.59966 15.9965 11.0615 15.391C12.5233 14.7855 13.7727 13.7602 14.6518 12.4446C15.5308 11.129 16 9.58225 16 8C16 5.87827 15.1571 3.84344 13.6569 2.34315C12.1566 0.842854 10.1217 0 8 0ZM8 14.8571C6.64379 14.8571 5.31803 14.455 4.19038 13.7015C3.06273 12.948 2.18383 11.8771 1.66483 10.6241C1.14583 9.37113 1.01003 7.99239 1.27462 6.66224C1.5392 5.33208 2.19228 4.11026 3.15127 3.15127C4.11026 2.19228 5.33208 1.5392 6.66224 1.27461C7.9924 1.01003 9.37114 1.14582 10.6241 1.66483C11.8771 2.18383 12.948 3.06272 13.7015 4.19037C14.455 5.31803 14.8571 6.64378 14.8571 8C14.8571 9.81862 14.1347 11.5628 12.8487 12.8487C11.5628 14.1347 9.81863 14.8571 8 14.8571Z" fill="var(--fill-0, #F5EEDB)"/>
<path id="Vector_2" d="M11.8337 4.16512C11.7806 4.11156 11.7174 4.06905 11.6477 4.04004C11.5781 4.01103 11.5034 3.99609 11.428 3.99609C11.3525 3.99609 11.2779 4.01103 11.2082 4.04004C11.1386 4.06905 11.0754 4.11156 11.0223 4.16512L7.99941 7.19369L4.97655 4.16512C4.86895 4.05752 4.72301 3.99707 4.57084 3.99707C4.41866 3.99707 4.27272 4.05752 4.16512 4.16512C4.05752 4.27272 3.99707 4.41866 3.99707 4.57084C3.99707 4.72301 4.05752 4.86895 4.16512 4.97655L7.19369 7.99941L4.16512 11.0223C4.11156 11.0754 4.06905 11.1386 4.04004 11.2082C4.01103 11.2779 3.99609 11.3525 3.99609 11.428C3.99609 11.5034 4.01103 11.5781 4.04004 11.6477C4.06905 11.7174 4.11156 11.7806 4.16512 11.8337C4.21824 11.8872 4.28144 11.9298 4.35108 11.9588C4.42071 11.9878 4.4954 12.0027 4.57084 12.0027C4.64627 12.0027 4.72096 11.9878 4.79059 11.9588C4.86023 11.9298 4.92343 11.8872 4.97655 11.8337L7.99941 8.80512L11.0223 11.8337C11.0754 11.8872 11.1386 11.9298 11.2082 11.9588C11.2779 11.9878 11.3525 12.0027 11.428 12.0027C11.5034 12.0027 11.5781 11.9878 11.6477 11.9588C11.7174 11.9298 11.7806 11.8872 11.8337 11.8337C11.8872 11.7806 11.9298 11.7174 11.9588 11.6477C11.9878 11.5781 12.0027 11.5034 12.0027 11.428C12.0027 11.3525 11.9878 11.2779 11.9588 11.2082C11.9298 11.1386 11.8872 11.0754 11.8337 11.0223L8.80512 7.99941L11.8337 4.97655C11.8872 4.92343 11.9298 4.86023 11.9588 4.79059C11.9878 4.72096 12.0027 4.64627 12.0027 4.57084C12.0027 4.4954 11.9878 4.42071 11.9588 4.35108C11.9298 4.28144 11.8872 4.21824 11.8337 4.16512Z" fill="var(--fill-0, #F5EEDB)"/>
</g>
</svg>
