<svg preserveAspectRatio="none" width="100%" height="100%" overflow="visible" style="display: block;" viewBox="0 0 32 32" fill="none" xmlns="http://www.w3.org/2000/svg">
<g id="Group">
<path id="Vector" d="M30.48 12.19V10.67H28.95V9.14H27.43V6.1H25.91V18.29H27.43V16.76H28.95V15.24H30.48V28.95H32V12.19H30.48Z" fill="var(--fill-0, #F7F1DE)"/>
<path id="Vector_2" d="M28.95 28.95H30.48V30.48H28.95V28.95Z" fill="var(--fill-0, #F7F1DE)"/>
<path id="Vector_3" d="M3.05 30.48H28.95V32H3.05V30.48Z" fill="var(--fill-0, #F7F1DE)"/>
<path id="Vector_4" d="M24.38 18.29H25.91V19.81H24.38V18.29Z" fill="var(--fill-0, #F7F1DE)"/>
<path id="Vector_5" d="M22.86 25.91H24.38V27.43H22.86V25.91Z" fill="var(--fill-0, #F7F1DE)"/>
<path id="Vector_6" d="M22.86 19.81H24.38V21.33H22.86V19.81Z" fill="var(--fill-0, #F7F1DE)"/>
<path id="Vector_7" d="M21.33 24.38H22.86V25.91H21.33V24.38Z" fill="var(--fill-0, #F7F1DE)"/>
<path id="Vector_8" d="M21.33 21.33H22.86V22.86H21.33V21.33Z" fill="var(--fill-0, #F7F1DE)"/>
<path id="Vector_9" d="M21.33 10.67H22.86V15.24H21.33V10.67Z" fill="var(--fill-0, #F7F1DE)"/>
<path id="Vector_10" d="M19.81 9.14H21.33V10.67H19.81V9.14Z" fill="var(--fill-0, #F7F1DE)"/>
<path id="Vector_11" d="M10.67 22.86H21.33V24.38H10.67V22.86Z" fill="var(--fill-0, #F7F1DE)"/>
<path id="Vector_12" d="M18.29 15.24H21.33V16.76H18.29V15.24Z" fill="var(--fill-0, #F7F1DE)"/>
<path id="Vector_13" d="M18.29 10.67H13.72V12.19H16.76V15.24H18.29V10.67Z" fill="var(--fill-0, #F7F1DE)"/>
<path id="Vector_14" d="M13.72 15.24H16.76V16.76H13.72V15.24Z" fill="var(--fill-0, #F7F1DE)"/>
<path id="Vector_15" d="M12.19 7.62H19.81V9.14H12.19V7.62Z" fill="var(--fill-0, #F7F1DE)"/>
<path id="Vector_16" d="M12.19 18.29H19.81V19.81H12.19V18.29Z" fill="var(--fill-0, #F7F1DE)"/>
<path id="Vector_17" d="M12.19 12.19H13.72V15.24H12.19V12.19Z" fill="var(--fill-0, #F7F1DE)"/>
<path id="Vector_18" d="M10.67 16.76H12.19V18.29H10.67V16.76Z" fill="var(--fill-0, #F7F1DE)"/>
<path id="Vector_19" d="M10.67 9.14H12.19V10.67H10.67V9.14Z" fill="var(--fill-0, #F7F1DE)"/>
<path id="Vector_20" d="M9.14 24.38H10.67V25.91H9.14V24.38Z" fill="var(--fill-0, #F7F1DE)"/>
<path id="Vector_21" d="M9.14 21.33H10.67V22.86H9.14V21.33Z" fill="var(--fill-0, #F7F1DE)"/>
<path id="Vector_22" d="M9.14 10.67H10.67V16.76H9.14V10.67Z" fill="var(--fill-0, #F7F1DE)"/>
<path id="Vector_23" d="M7.62 25.91H9.14V27.43H7.62V25.91Z" fill="var(--fill-0, #F7F1DE)"/>
<path id="Vector_24" d="M7.62 19.81H9.14V21.33H7.62V19.81Z" fill="var(--fill-0, #F7F1DE)"/>
<path id="Vector_25" d="M25.91 6.1V4.57H22.86V3.05H21.33V1.52H19.81V0H12.19V1.52H10.67V3.05H9.14V4.57H6.1V6.1H25.91Z" fill="var(--fill-0, #F7F1DE)"/>
<path id="Vector_26" d="M6.1 18.29H7.62V19.81H6.1V18.29Z" fill="var(--fill-0, #F7F1DE)"/>
<path id="Vector_27" d="M1.52 28.95H3.05V30.48H1.52V28.95Z" fill="var(--fill-0, #F7F1DE)"/>
<path id="Vector_28" d="M1.52 15.24H3.05V16.76H4.57V18.29H6.1V6.1H4.57V9.14H3.05V10.67H1.52V12.19H0V28.95H1.52V15.24Z" fill="var(--fill-0, #F7F1DE)"/>
</g>
</svg>
