<svg preserveAspectRatio="none" width="100%" height="100%" overflow="visible" style="display: block;" viewBox="0 0 32 32" fill="none" xmlns="http://www.w3.org/2000/svg">
<g id="Group">
<path id="Vector" d="M30.47 3.05H32V28.95H30.47V3.05Z" fill="var(--fill-0, #F7F1DE)"/>
<path id="Vector_2" d="M28.95 28.95H30.47V30.48H28.95V28.95Z" fill="var(--fill-0, #F7F1DE)"/>
<path id="Vector_3" d="M28.95 1.52H30.47V3.05H28.95V1.52Z" fill="var(--fill-0, #F7F1DE)"/>
<path id="Vector_4" d="M27.42 4.57H28.95V27.43H27.42V4.57Z" fill="var(--fill-0, #F7F1DE)"/>
<path id="Vector_5" d="M3.04 30.48H28.95V32H3.04V30.48Z" fill="var(--fill-0, #F7F1DE)"/>
<path id="Vector_6" d="M4.57 27.43H27.42V28.95H4.57V27.43Z" fill="var(--fill-0, #F7F1DE)"/>
<path id="Vector_7" d="M22.85 15.24H21.33V13.71H18.28V15.24H16.76V13.71H13.71V22.86H16.76V18.29H18.28V16.76H19.81V18.29H21.33V22.86H24.38V16.76H22.85V15.24Z" fill="var(--fill-0, #F7F1DE)"/>
<path id="Vector_8" d="M7.61 13.71H10.66V22.86H7.61V13.71Z" fill="var(--fill-0, #F7F1DE)"/>
<path id="Vector_9" d="M7.61 9.14H10.66V12.19H7.61V9.14Z" fill="var(--fill-0, #F7F1DE)"/>
<path id="Vector_10" d="M4.57 3.05H27.42V4.57H4.57V3.05Z" fill="var(--fill-0, #F7F1DE)"/>
<path id="Vector_11" d="M3.04 0H28.95V1.52H3.04V0Z" fill="var(--fill-0, #F7F1DE)"/>
<path id="Vector_12" d="M3.04 4.57H4.57V27.43H3.04V4.57Z" fill="var(--fill-0, #F7F1DE)"/>
<path id="Vector_13" d="M1.52 28.95H3.04V30.48H1.52V28.95Z" fill="var(--fill-0, #F7F1DE)"/>
<path id="Vector_14" d="M1.52 1.52H3.04V3.05H1.52V1.52Z" fill="var(--fill-0, #F7F1DE)"/>
<path id="Vector_15" d="M0 3.05H1.52V28.95H0V3.05Z" fill="var(--fill-0, #F7F1DE)"/>
</g>
</svg>
