<svg preserveAspectRatio="none" width="100%" height="100%" overflow="visible" style="display: block;" viewBox="0 0 133.228 34.6052" fill="none" xmlns="http://www.w3.org/2000/svg">
<g id="Group 35">
<g id="T" filter="url(#filter0_ii_0_120)">
<path d="M4.02736 11.5839C2.88544 11.1008 1.91921 10.1346 1.43609 8.94873C0.952974 7.76289 0.909054 6.40136 1.34825 5.21552C1.69961 4.24928 2.31449 3.37087 3.10504 2.71207C3.8956 2.05327 4.86184 1.57014 5.87199 1.30662C6.96999 1.0431 8.1119 0.999184 9.25381 1.13094C10.3957 1.30662 11.4937 1.61407 12.5917 1.96543C14.1728 2.49247 15.7979 3.10735 17.4668 3.45871C18.7405 3.76615 20.0142 4.16143 21.3318 4.20535C21.771 4.20535 22.2541 4.16143 22.6494 3.98575C22.825 3.85399 23.0007 3.72223 23.1325 3.54655C23.2642 3.32695 23.3521 3.15127 23.396 2.88775C23.396 2.66815 23.3521 2.40463 23.2642 2.22895C23.1325 2.00934 22.9568 1.78974 22.7811 1.65799C22.3858 1.35054 21.9466 1.21878 21.4635 1.08702C20.9804 0.999184 20.4973 0.911342 20.0142 0.867422V0.0329397C20.5851 -0.0109799 21.1561 -0.0109799 21.6831 0.0329397C22.6933 0.164698 23.7473 0.428221 24.6257 0.911342C25.5481 1.39446 26.3386 2.14111 26.8217 3.06343C27.3488 4.02967 27.4805 5.21552 27.217 6.31352C26.9096 7.41153 26.2069 8.33385 25.2406 8.99265C24.4501 9.51969 23.4838 9.87105 22.4737 9.9589C22.1223 10.0028 21.727 10.0467 21.3318 10.0467V15.3172L24.2744 18.2598L21.3318 21.2025V27.8783C21.6831 27.6587 21.9466 27.4391 22.2541 27.2195C23.8791 25.858 25.1528 24.1012 25.9433 22.1248H26.7778C26.8657 24.1451 26.3825 26.1654 25.4602 27.9662C24.4061 29.9426 22.825 31.6115 20.8926 32.7535C18.9601 33.8954 16.7641 34.5103 14.5242 34.5981C10.4396 34.7299 6.31119 33.017 3.54424 29.9865C0.777295 26.956 -0.540299 22.6518 0.206337 18.6551C0.689455 16.1516 1.91921 13.8239 3.71992 12.0231C5.52063 10.2663 7.84838 9.08049 10.3518 8.64129L10.791 9.30009C8.85854 10.5738 7.32134 12.3745 6.35511 14.4827L16.0175 10.3542V23.7059L8.28758 26.956C8.90246 27.5709 9.60517 28.0979 10.3518 28.4932C12.1964 29.5473 14.3924 29.9426 16.5006 29.679C17.7743 29.5473 19.004 29.152 20.102 28.581V21.1585L17.2472 18.2598L20.102 15.3611V9.9589C19.9263 9.9589 19.7067 9.91498 19.531 9.87105C17.5547 9.60753 15.6222 9.03657 13.6897 8.59737C11.7133 8.11425 9.78085 7.54329 7.80446 7.14801C7.0139 6.97232 6.17943 6.88449 5.38887 7.06016C4.94968 7.14801 4.59832 7.32369 4.24696 7.58721C3.93952 7.80681 3.676 8.15817 3.50032 8.55345C3.32464 8.99265 3.32464 9.47577 3.50032 9.9589C3.676 10.3981 4.02736 10.7495 4.46656 10.9691L4.02736 11.5839ZM5.78415 15.976C5.08143 18.2159 5.03751 20.7193 5.78415 22.9593C6.17943 24.0573 6.75039 25.1114 7.4531 26.0337L10.3518 24.8039V14.0435L5.78415 15.976Z" fill="var(--fill-0, #F7F1DE)"/>
</g>
<g id="." filter="url(#filter1_ii_0_120)">
<path d="M32.0076 32.4298L34.1345 30.2789L36.3332 32.4776L34.1823 34.6046L32.0076 32.4298Z" fill="var(--fill-0, #F7F1DE)"/>
</g>
<g id="G" filter="url(#filter2_ii_0_120)">
<path d="M48.4569 23.7371C48.8825 23.0087 49.1379 22.1946 49.223 21.3805C49.3507 20.5236 49.3507 19.7095 49.3507 18.8526C49.3507 14.7821 49.3507 10.7117 49.3507 6.64124C48.542 7.41249 47.9036 8.35512 47.478 9.38344C46.6694 11.183 46.4991 13.1968 46.5417 15.1677C46.5842 17.2244 46.797 19.281 47.1375 21.2948C47.3078 22.366 47.5631 23.48 47.8611 24.5083C48.0739 24.2941 48.2867 24.037 48.4569 23.7371ZM64.8429 24.7226C64.8429 24.5512 64.8429 24.3369 64.8003 24.1656L58.3311 27.4648C58.3311 29.2215 58.3311 30.9353 58.3311 32.6921C58.4162 32.6921 58.5013 32.6492 58.5864 32.6492C60.374 32.2636 61.9913 31.2353 63.0979 29.7785C64.2045 28.3645 64.8003 26.5221 64.8429 24.7226ZM58.3311 22.9658V26.0937L64.6727 22.8373C64.5024 21.9375 64.2045 21.0377 63.7789 20.1808L58.3311 22.9658ZM58.3311 21.5948L63.183 19.1096C63.0128 18.8526 62.8 18.5955 62.5872 18.3384C61.4806 16.9673 59.9909 15.8961 58.3311 15.2534C58.3311 17.3529 58.3311 19.4953 58.3311 21.5948ZM57.0968 32.8206C57.0968 27.0791 57.0968 21.3805 57.0968 15.6819L54.8411 17.9528V18.6383C54.8411 19.6238 54.7985 20.6093 54.5006 21.5091C54.2026 22.4517 53.6919 23.2658 53.0535 23.9513C52.1597 24.9368 51.0106 25.6223 49.8189 26.0937C49.4358 26.265 49.0102 26.3936 48.6272 26.5221C48.7123 26.7364 48.7974 26.9506 48.9251 27.122C49.8189 28.9215 51.1383 30.5497 52.8407 31.578C54.1175 32.3921 55.6072 32.8206 57.0968 32.8206ZM54.8411 4.28467V16.1961L62.5446 8.5265C61.2252 7.8838 59.9058 7.19825 58.629 6.42701C57.4373 5.74146 56.3307 5.01307 55.2241 4.19898C55.1815 4.19898 55.1815 4.19898 55.139 4.19898C55.0539 4.24183 54.9262 4.24183 54.8411 4.28467ZM62.0764 10.7117C64.8429 11.3115 67.354 13.1111 68.8011 15.5534C70.3333 18.167 70.6737 21.5091 69.78 24.4226C68.9287 27.0791 67.1837 29.4357 64.9706 31.1067C62.9702 32.6492 60.5868 33.7204 58.1183 34.1488C55.6072 34.5773 53.0109 34.4059 50.6275 33.5918C47.6483 32.6064 44.9669 30.5926 43.2219 27.9361C41.4343 25.3224 40.5406 22.1089 40.6683 18.8954C40.7959 15.2963 42.243 11.74 44.5839 8.95497C47.2652 5.82716 51.1808 3.81336 55.2667 3.34205L59.4376 9.16161e-10C60.757 1.07117 62.2041 2.0138 63.7363 2.82789C64.7578 3.34205 65.8218 3.81336 66.8858 4.19898L68.2903 2.78504L69.1416 3.68482L62.0764 10.7117Z" fill="var(--fill-0, #F7F1DE)"/>
</g>
<g id="._2" filter="url(#filter3_ii_0_120)">
<path d="M74.3981 32.4298L76.5251 30.2789L78.7237 32.4776L76.5729 34.6046L74.3981 32.4298Z" fill="var(--fill-0, #F7F1DE)"/>
</g>
<g id="M" filter="url(#filter4_ii_0_120)">
<path d="M83.8183 5.42846C83.9801 4.98627 84.2227 4.58428 84.5868 4.30289C84.8699 4.0215 85.2339 3.86071 85.5979 3.74011C86.0833 3.61952 86.5686 3.61952 87.054 3.69991C87.5393 3.82051 88.0247 3.9813 88.51 4.1019C89.0763 4.26269 89.6425 4.38329 90.2088 4.42349C90.8155 4.46369 91.3817 4.38329 91.948 4.1823C92.8378 3.94111 93.6467 3.41852 94.3343 2.85574C95.0623 2.25276 95.7095 1.60958 96.3162 0.926199C96.4779 0.765406 96.6397 0.56441 96.8015 0.403617L96.033 0.00162801C95.8713 0.162423 95.7095 0.323219 95.5881 0.443816C95.2646 0.725205 94.9814 0.9664 94.577 1.08699C94.213 1.20759 93.8085 1.20759 93.4445 1.16739C93.1209 1.12719 92.7973 1.0468 92.4738 0.9664C91.9075 0.845802 91.3413 0.685007 90.775 0.484014C90.2492 0.28302 89.683 0.122225 89.0763 0.0418286C88.5505 -0.0385702 88.0247 0.00162801 87.4989 0.122225C86.9731 0.28302 86.4877 0.484014 86.0833 0.805604C85.2339 1.32819 84.5868 2.05177 84.061 2.89594C83.6161 3.53912 83.252 4.26269 83.0498 5.02647L83.8183 5.42846ZM83.8183 18.9754C83.252 17.9705 83.0498 16.7243 83.2925 15.5987C83.4543 14.9958 83.6969 14.433 84.1014 13.9506C84.5059 13.428 84.9912 13.0662 85.5575 12.7848C86.4068 12.3828 87.3371 12.2622 88.2674 12.1416C88.3078 11.6995 88.3483 11.2573 88.4696 10.8151C88.6718 9.97091 89.0358 9.20714 89.5616 8.48356C90.411 7.2776 91.6648 6.39323 92.9591 5.58925L101.048 0.484014L106.509 4.94607L106.711 5.10687L108.895 3.82051V0.886001H110.068V3.09693L114.436 0.484014L119.573 5.02647L121.271 3.69991L121.959 4.54409L119.856 6.23243V24.965L121.635 26.4926L123.9 24.965L124.507 25.5278L118.319 30.5527L113.668 26.6936L112.292 27.6584L111.928 27.0554L114.234 25.4876V19.0558C113.587 18.493 112.737 18.2117 111.848 18.2519C111.2 18.2921 110.594 18.493 110.068 18.895V25.8092L111.322 24.965L111.928 25.5278L105.133 30.5527L100.482 26.6936L99.1069 27.6584L98.7429 27.0554L101.251 25.3268C101.251 23.2767 101.251 21.1864 101.251 19.1362C100.603 18.5332 99.6732 18.2117 98.7834 18.2519C98.1362 18.2921 97.4891 18.5332 96.9633 18.895V20.4226L97.0037 24.2817C97.0037 25.0052 96.9633 25.769 96.6802 26.4524C96.4375 27.1358 95.9926 27.7388 95.4668 28.2211C94.5365 29.0653 93.404 29.6683 92.1906 29.9497C91.584 30.0703 90.9773 30.1507 90.3301 30.1909C89.7234 30.2311 89.0763 30.2713 88.51 30.4321C88.1056 30.5527 87.7416 30.7537 87.4989 31.035C87.2158 31.3164 87.054 31.7184 87.0944 32.1204C87.1349 32.442 87.2562 32.7234 87.4584 32.9646C87.7011 33.2058 87.9438 33.3666 88.2674 33.4872C88.5505 33.6078 88.9145 33.648 89.2381 33.6078V34.5725C88.0247 34.7333 86.7304 34.2911 85.8406 33.447C84.9103 32.5626 84.3845 31.2762 84.3845 29.9899C84.3845 28.9045 84.7081 27.779 85.4361 26.9348C85.881 26.4122 86.4473 25.97 87.0944 25.6886C87.7416 25.4072 88.4696 25.2866 89.1572 25.2062C90.1683 25.1258 91.2199 25.166 92.2311 24.965C92.7164 24.8444 93.2018 24.6837 93.6467 24.4425C94.0916 24.2013 94.4961 23.8797 94.8196 23.4777C95.2646 22.9149 95.5477 22.2717 95.669 21.5481C95.8308 20.8648 95.8308 20.1412 95.8308 19.4578V4.78528C95.1432 5.30786 94.577 5.95104 94.1321 6.67462C93.8894 7.11681 93.7276 7.55899 93.6063 8.04138C93.4849 8.52376 93.4849 9.00615 93.4849 9.48853V18.493C93.4849 19.096 93.4445 19.699 93.2827 20.2618C93.0805 20.8246 92.7569 21.3472 92.3929 21.7491C91.6244 22.5531 90.6941 23.1159 89.683 23.4777C88.6718 23.8797 87.5798 24.1209 86.5282 24.2013L86.3259 23.3973C86.69 23.3571 87.054 23.2365 87.3371 22.9953C87.5393 22.7943 87.7416 22.5531 87.8629 22.3119C88.0247 22.0305 88.1056 21.7491 88.146 21.4678C88.2269 20.8648 88.2269 20.2618 88.2269 19.699V16.6439C87.782 16.6439 87.3371 16.6439 86.8922 16.6439C86.6495 16.6439 86.4068 16.6439 86.1642 16.6841C85.9215 16.7243 85.6788 16.8047 85.4766 16.9655C85.0317 17.2067 84.7081 17.6489 84.6272 18.0911C84.5463 18.4126 84.5463 18.694 84.5868 18.9754H83.8183ZM96.9633 14.1516V17.7293C97.5295 17.3273 98.1767 17.1263 98.8238 17.0861C99.7136 17.0459 100.603 17.3675 101.251 17.9705V13.9104C100.603 14.4732 99.7136 14.7948 98.8238 14.7546C98.1767 14.7546 97.5295 14.5134 96.9633 14.1516ZM96.9633 12.9858C97.4891 13.3476 98.1362 13.5888 98.7834 13.5888C99.6732 13.6692 100.603 13.3476 101.251 12.7446C101.251 11.0965 101.251 9.44833 101.251 7.80018L96.9633 4.90587V12.9858ZM108.895 26.372C108.895 19.2166 108.895 12.0612 108.895 4.90587L106.509 6.35303V24.5631L108.895 26.372ZM110.068 14.1516V17.7293C110.594 17.3273 111.241 17.1263 111.888 17.0861C112.737 17.0861 113.587 17.3675 114.234 17.8901V13.9908C113.587 14.5134 112.737 14.7948 111.888 14.7546C111.241 14.7546 110.594 14.5134 110.068 14.1516ZM110.068 12.9858C110.594 13.3476 111.2 13.5888 111.848 13.5888C112.737 13.6692 113.587 13.3476 114.234 12.7848V8.00118L110.068 4.62448V12.9858Z" fill="var(--fill-0, #F7F1DE)"/>
</g>
<g id="._3" filter="url(#filter5_ii_0_120)">
<path d="M128.903 32.4298L131.03 30.2789L133.228 32.4776L131.077 34.6046L128.903 32.4298Z" fill="var(--fill-0, #F7F1DE)"/>
</g>
</g>
<defs>
<filter id="filter0_ii_0_120" x="-1" y="9.16161e-10" width="29.3488" height="35.6052" filterUnits="userSpaceOnUse" color-interpolation-filters="sRGB">
<feFlood flood-opacity="0" result="BackgroundImageFix"/>
<feBlend mode="normal" in="SourceGraphic" in2="BackgroundImageFix" result="shape"/>
<feColorMatrix in="SourceAlpha" type="matrix" values="0 0 0 0 0 0 0 0 0 0 0 0 0 0 0 0 0 0 127 0" result="hardAlpha"/>
<feOffset dx="1" dy="1"/>
<feGaussianBlur stdDeviation="0.5"/>
<feComposite in2="hardAlpha" operator="arithmetic" k2="-1" k3="1"/>
<feColorMatrix type="matrix" values="0 0 0 0 0.960784 0 0 0 0 0.937255 0 0 0 0 0.85098 0 0 0 0.1 0"/>
<feBlend mode="normal" in2="shape" result="effect1_innerShadow_0_120"/>
<feColorMatrix in="SourceAlpha" type="matrix" values="0 0 0 0 0 0 0 0 0 0 0 0 0 0 0 0 0 0 127 0" result="hardAlpha"/>
<feOffset dx="-1" dy="0.4"/>
<feGaussianBlur stdDeviation="1.1"/>
<feComposite in2="hardAlpha" operator="arithmetic" k2="-1" k3="1"/>
<feColorMatrix type="matrix" values="0 0 0 0 0.960784 0 0 0 0 0.937255 0 0 0 0 0.85098 0 0 0 1 0"/>
<feBlend mode="normal" in2="effect1_innerShadow_0_120" result="effect2_innerShadow_0_120"/>
</filter>
<filter id="filter1_ii_0_120" x="31.0076" y="30.2789" width="6.32561" height="5.32565" filterUnits="userSpaceOnUse" color-interpolation-filters="sRGB">
<feFlood flood-opacity="0" result="BackgroundImageFix"/>
<feBlend mode="normal" in="SourceGraphic" in2="BackgroundImageFix" result="shape"/>
<feColorMatrix in="SourceAlpha" type="matrix" values="0 0 0 0 0 0 0 0 0 0 0 0 0 0 0 0 0 0 127 0" result="hardAlpha"/>
<feOffset dx="1" dy="1"/>
<feGaussianBlur stdDeviation="0.5"/>
<feComposite in2="hardAlpha" operator="arithmetic" k2="-1" k3="1"/>
<feColorMatrix type="matrix" values="0 0 0 0 0.960784 0 0 0 0 0.937255 0 0 0 0 0.85098 0 0 0 0.1 0"/>
<feBlend mode="normal" in2="shape" result="effect1_innerShadow_0_120"/>
<feColorMatrix in="SourceAlpha" type="matrix" values="0 0 0 0 0 0 0 0 0 0 0 0 0 0 0 0 0 0 127 0" result="hardAlpha"/>
<feOffset dx="-1" dy="0.4"/>
<feGaussianBlur stdDeviation="1.1"/>
<feComposite in2="hardAlpha" operator="arithmetic" k2="-1" k3="1"/>
<feColorMatrix type="matrix" values="0 0 0 0 0.960784 0 0 0 0 0.937255 0 0 0 0 0.85098 0 0 0 1 0"/>
<feBlend mode="normal" in2="effect1_innerShadow_0_120" result="effect2_innerShadow_0_120"/>
</filter>
<filter id="filter2_ii_0_120" x="39.6562" y="9.16161e-10" width="31.6112" height="35.3765" filterUnits="userSpaceOnUse" color-interpolation-filters="sRGB">
<feFlood flood-opacity="0" result="BackgroundImageFix"/>
<feBlend mode="normal" in="SourceGraphic" in2="BackgroundImageFix" result="shape"/>
<feColorMatrix in="SourceAlpha" type="matrix" values="0 0 0 0 0 0 0 0 0 0 0 0 0 0 0 0 0 0 127 0" result="hardAlpha"/>
<feOffset dx="1" dy="1"/>
<feGaussianBlur stdDeviation="0.5"/>
<feComposite in2="hardAlpha" operator="arithmetic" k2="-1" k3="1"/>
<feColorMatrix type="matrix" values="0 0 0 0 0.960784 0 0 0 0 0.937255 0 0 0 0 0.85098 0 0 0 0.1 0"/>
<feBlend mode="normal" in2="shape" result="effect1_innerShadow_0_120"/>
<feColorMatrix in="SourceAlpha" type="matrix" values="0 0 0 0 0 0 0 0 0 0 0 0 0 0 0 0 0 0 127 0" result="hardAlpha"/>
<feOffset dx="-1" dy="0.4"/>
<feGaussianBlur stdDeviation="1.1"/>
<feComposite in2="hardAlpha" operator="arithmetic" k2="-1" k3="1"/>
<feColorMatrix type="matrix" values="0 0 0 0 0.960784 0 0 0 0 0.937255 0 0 0 0 0.85098 0 0 0 1 0"/>
<feBlend mode="normal" in2="effect1_innerShadow_0_120" result="effect2_innerShadow_0_120"/>
</filter>
<filter id="filter3_ii_0_120" x="73.3981" y="30.2789" width="6.32561" height="5.32565" filterUnits="userSpaceOnUse" color-interpolation-filters="sRGB">
<feFlood flood-opacity="0" result="BackgroundImageFix"/>
<feBlend mode="normal" in="SourceGraphic" in2="BackgroundImageFix" result="shape"/>
<feColorMatrix in="SourceAlpha" type="matrix" values="0 0 0 0 0 0 0 0 0 0 0 0 0 0 0 0 0 0 127 0" result="hardAlpha"/>
<feOffset dx="1" dy="1"/>
<feGaussianBlur stdDeviation="0.5"/>
<feComposite in2="hardAlpha" operator="arithmetic" k2="-1" k3="1"/>
<feColorMatrix type="matrix" values="0 0 0 0 0.960784 0 0 0 0 0.937255 0 0 0 0 0.85098 0 0 0 0.1 0"/>
<feBlend mode="normal" in2="shape" result="effect1_innerShadow_0_120"/>
<feColorMatrix in="SourceAlpha" type="matrix" values="0 0 0 0 0 0 0 0 0 0 0 0 0 0 0 0 0 0 127 0" result="hardAlpha"/>
<feOffset dx="-1" dy="0.4"/>
<feGaussianBlur stdDeviation="1.1"/>
<feComposite in2="hardAlpha" operator="arithmetic" k2="-1" k3="1"/>
<feColorMatrix type="matrix" values="0 0 0 0 0.960784 0 0 0 0 0.937255 0 0 0 0 0.85098 0 0 0 1 0"/>
<feBlend mode="normal" in2="effect1_innerShadow_0_120" result="effect2_innerShadow_0_120"/>
</filter>
<filter id="filter4_ii_0_120" x="82.0498" y="0" width="43.4574" height="35.6052" filterUnits="userSpaceOnUse" color-interpolation-filters="sRGB">
<feFlood flood-opacity="0" result="BackgroundImageFix"/>
<feBlend mode="normal" in="SourceGraphic" in2="BackgroundImageFix" result="shape"/>
<feColorMatrix in="SourceAlpha" type="matrix" values="0 0 0 0 0 0 0 0 0 0 0 0 0 0 0 0 0 0 127 0" result="hardAlpha"/>
<feOffset dx="1" dy="1"/>
<feGaussianBlur stdDeviation="0.5"/>
<feComposite in2="hardAlpha" operator="arithmetic" k2="-1" k3="1"/>
<feColorMatrix type="matrix" values="0 0 0 0 0.960784 0 0 0 0 0.937255 0 0 0 0 0.85098 0 0 0 0.1 0"/>
<feBlend mode="normal" in2="shape" result="effect1_innerShadow_0_120"/>
<feColorMatrix in="SourceAlpha" type="matrix" values="0 0 0 0 0 0 0 0 0 0 0 0 0 0 0 0 0 0 127 0" result="hardAlpha"/>
<feOffset dx="-1" dy="0.4"/>
<feGaussianBlur stdDeviation="1.1"/>
<feComposite in2="hardAlpha" operator="arithmetic" k2="-1" k3="1"/>
<feColorMatrix type="matrix" values="0 0 0 0 0.960784 0 0 0 0 0.937255 0 0 0 0 0.85098 0 0 0 1 0"/>
<feBlend mode="normal" in2="effect1_innerShadow_0_120" result="effect2_innerShadow_0_120"/>
</filter>
<filter id="filter5_ii_0_120" x="127.903" y="30.2789" width="6.32561" height="5.32565" filterUnits="userSpaceOnUse" color-interpolation-filters="sRGB">
<feFlood flood-opacity="0" result="BackgroundImageFix"/>
<feBlend mode="normal" in="SourceGraphic" in2="BackgroundImageFix" result="shape"/>
<feColorMatrix in="SourceAlpha" type="matrix" values="0 0 0 0 0 0 0 0 0 0 0 0 0 0 0 0 0 0 127 0" result="hardAlpha"/>
<feOffset dx="1" dy="1"/>
<feGaussianBlur stdDeviation="0.5"/>
<feComposite in2="hardAlpha" operator="arithmetic" k2="-1" k3="1"/>
<feColorMatrix type="matrix" values="0 0 0 0 0.960784 0 0 0 0 0.937255 0 0 0 0 0.85098 0 0 0 0.1 0"/>
<feBlend mode="normal" in2="shape" result="effect1_innerShadow_0_120"/>
<feColorMatrix in="SourceAlpha" type="matrix" values="0 0 0 0 0 0 0 0 0 0 0 0 0 0 0 0 0 0 127 0" result="hardAlpha"/>
<feOffset dx="-1" dy="0.4"/>
<feGaussianBlur stdDeviation="1.1"/>
<feComposite in2="hardAlpha" operator="arithmetic" k2="-1" k3="1"/>
<feColorMatrix type="matrix" values="0 0 0 0 0.960784 0 0 0 0 0.937255 0 0 0 0 0.85098 0 0 0 1 0"/>
<feBlend mode="normal" in2="effect1_innerShadow_0_120" result="effect2_innerShadow_0_120"/>
</filter>
</defs>
</svg>
