<svg preserveAspectRatio="none" width="100%" height="100%" overflow="visible" style="display: block;" viewBox="0 0 113.993 22.3917" fill="none" xmlns="http://www.w3.org/2000/svg">
<g id="Group 37">
<g id="Vector" filter="url(#filter0_ii_0_86)">
<path d="M19.1052 18.5311C19.4743 18.5205 18.4639 17.9752 17.8933 17.1777C17.2887 16.3365 18.2991 14.7471 19.6469 15.1319C20.9914 15.5178 22.9341 17.0535 25.5046 19.0339C28.0774 21.0131 30.2585 22.2256 33.3973 21.1608C36.5351 20.0982 35.759 18.0585 34.9795 17.4087C34.2045 16.7588 32.6479 16.846 32.5307 18.1189C32.409 19.3884 33.3662 19.0921 33.9957 19.3281C34.6235 19.5652 33.4851 20.5702 31.9935 20.5109C30.4962 20.4511 28.6435 19.9802 27.7169 19.2397C26.7925 18.5026 26.2196 17.4394 26.4488 15.6173C26.6787 13.7952 26.6311 12.9323 27.3257 13.1124C28.0168 13.2947 27.5102 14.388 28.4765 14.4339C29.4428 14.4775 29.6262 14.4775 29.6726 14.7974C29.719 15.1162 29.7654 16.119 29.4892 16.1649C29.213 16.2085 29.029 16.5714 28.7969 16.5714C28.7969 16.5714 29.5356 17.03 30.3644 16.1649C31.1914 15.2974 30.5942 14.8422 30.3644 14.5251C30.3644 14.5251 31.6533 13.9306 31.7008 13.5201C31.7461 13.1118 30.7334 12.1107 30.1323 11.9742C29.535 11.8366 28.9362 11.8825 28.9362 11.8825C28.9362 11.8825 28.8444 11.2433 29.5356 11.1538C30.2268 11.061 31.3765 10.3781 31.3765 9.10351C31.3765 7.8267 30.3649 7.69249 30.3185 7.32729C30.2721 6.96377 29.2583 5.82397 28.3848 6.5527C27.5102 7.28143 28.845 7.00905 29.4428 7.1897C30.0445 7.37425 29.8583 7.96653 29.3511 8.28307C28.8444 8.60074 27.003 8.60075 26.587 9.55989C26.1726 10.5146 25.6173 9.69411 25.6173 9.14939C25.6173 8.60074 24.651 8.0549 24.098 7.87482C23.5449 7.6925 23.4979 7.46431 24.0051 6.46378C24.5118 5.46101 23.8217 5.59636 23.3604 5.91458C22.9001 6.2356 22.7156 7.23612 22.256 7.55658C21.7946 7.87536 21.2886 9.06046 22.3013 9.96928C23.3162 10.8781 24.7733 11.0319 25.2035 11.2746C25.6348 11.5184 25.144 12.6717 25.144 13.5827C25.144 14.4938 25.6348 15.1621 25.6348 15.5273C25.6348 15.8908 24.7755 16.0714 25.144 17.4081C25.144 17.4081 22.5016 15.1022 21.4567 14.1912C20.414 13.2779 19.3062 12.6118 17.6482 12.4295C15.9907 12.2472 14.1487 12.7941 15.2531 13.218C16.3598 13.6431 16.4905 13.8153 16.4905 13.8153C16.4905 13.8153 15.398 13.765 14.9084 14.2533C14.4176 14.737 13.868 15.199 14.2099 16.5569C14.502 17.7291 14.1493 15.4048 16.1135 15.8281C16.1135 15.8281 15.6528 18.6195 19.1052 18.5311Z" fill="var(--fill-0, #F7F1DE)"/>
<path d="M1.58011 13.0086C1.99213 12.0448 4.55921 11.7463 9.01165 15.1645C10.863 16.5847 12.6266 18.128 14.5639 19.4302C16.2422 20.5542 18.1348 21.5445 20.1916 21.6114C20.689 21.6277 21.1837 21.5883 21.6711 21.4984C21.9938 21.4422 22.5487 21.4383 22.3623 21.9727C22.1803 22.4943 21.0983 22.392 20.6796 22.3667C19.6227 22.3021 18.5731 22.1189 17.5402 21.8806C13.3893 20.9341 11.9159 18.6192 10.5821 18.1145C9.24948 17.6053 6.70697 17.1608 5.02872 17.702C3.34936 18.2455 2.66602 19.1576 1.96592 20.3002C1.26581 21.445 -1.03829 22.492 0.543931 19.7185C2.03347 17.109 6.83874 15.4663 9.82453 16.9674C9.82453 16.9674 6.19895 13.9534 3.6492 14.2771C2.31821 14.4457 1.24066 13.8089 1.58011 13.0086Z" fill="var(--fill-0, #F7F1DE)"/>
<path fill-rule="evenodd" clip-rule="evenodd" d="M51.9536 18.9148C51.8225 19.742 50.1401 18.7727 49.8812 18.5229C49.1536 17.8244 48.7289 16.7592 48.6675 15.7582C48.5314 13.3753 50.3657 11.3148 52.3535 10.3172C56.5472 8.20917 63.2065 9.5059 64.7504 14.4756C65.0955 15.5743 65.0482 16.6981 64.4194 17.674C64.1539 18.0968 63.7972 18.5012 63.3533 18.7335C63.1169 18.8638 62.5967 19.0176 62.4117 18.7176C62.3097 18.553 62.4407 18.4402 62.4963 18.2932C62.5809 18.0927 62.5594 17.8871 62.459 17.6941C62.1595 17.1209 61.4411 16.9839 60.9342 17.3616C60.0689 17.9999 60.5534 19.2265 61.4361 19.5013C64.236 20.3728 65.7459 18.0584 65.6248 15.5242C65.5618 14.2484 64.9702 12.8923 64.1357 11.934C62.2707 9.79083 59.6649 8.81241 56.9006 8.68792C54.1604 8.56426 51.2816 9.72231 49.4954 11.8295C48.8069 12.6408 48.246 13.8515 48.0926 14.9026C47.8968 16.262 48.4136 18.5288 49.5967 19.356C50.6859 20.1163 53.4187 20.2241 53.6327 18.4929C53.7174 17.8253 53.3382 17.0925 52.6281 16.9981C52.1303 16.9346 51.6865 17.1936 51.4616 17.6439C51.3413 17.8871 51.3306 18.1436 51.484 18.3717C51.6085 18.5514 51.9893 18.6717 51.9536 18.9148Z" fill="var(--fill-0, #F7F1DE)"/>
<path fill-rule="evenodd" clip-rule="evenodd" d="M57.375 18.2455C57.2522 18.6098 57.1609 18.7694 56.8788 18.7694C56.5951 18.7694 56.4574 18.4887 56.3504 18.213C56.25 17.9406 54.273 12.5372 53.3206 11.4067C53.4633 11.3574 53.5571 11.2956 53.7114 11.3532C54.9185 11.7986 56.3993 15.2368 56.3993 15.2368C56.3993 15.2368 56.3446 11.5371 56.659 10.3507C56.7187 10.1259 56.7884 10.1142 56.8797 10.1142C56.9685 10.1142 57.0431 10.1292 57.1037 10.3573C57.4115 11.5421 57.3584 15.1975 57.3584 15.1975C57.3584 15.1975 58.8575 11.7986 60.0289 11.3173C60.194 11.2488 60.2852 11.3399 60.4354 11.4067C59.371 12.5589 57.5226 17.8035 57.375 18.2455Z" fill="var(--fill-0, #F7F1DE)"/>
<path fill-rule="evenodd" clip-rule="evenodd" d="M45.0989 8.99113C45.2532 9.19667 44.7961 9.46153 44.6667 9.49829C44.4352 9.56346 44.1631 9.54841 43.9375 9.47906C43.4886 9.33702 42.9552 9.02036 42.7436 8.58672C42.0567 7.20309 42.771 5.73924 44.1631 5.25129C46.3118 4.49764 48.4423 5.77349 49.9654 7.21645C50.4143 7.63755 50.8033 8.10881 51.2198 8.56918C51.3675 8.73211 51.5143 8.89421 51.6703 9.05212C51.769 9.15656 51.847 9.26432 51.9947 9.24009C52.3381 9.18662 52.1614 8.90922 52.0494 8.74211C51.8935 8.51986 51.74 8.30515 51.5815 8.09292C51.2555 7.66513 50.9054 7.25739 50.5329 6.8789C49.1358 5.47187 46.7689 4.10162 44.7306 4.24533C44.1988 4.28962 43.5119 4.46089 43.073 4.7809C42.0567 5.52368 41.359 6.69342 41.6585 7.99267C42.1264 10.0113 45.016 11.354 46.1227 9.00617C46.5665 8.05785 45.7095 6.6934 44.6078 7.03179C44.1523 7.16547 43.8786 7.66682 43.8736 8.12719C43.8736 8.43718 44.0212 8.6803 44.295 8.81733C44.4244 8.87916 44.5605 8.9151 44.7015 8.9385C44.7737 8.9502 45.0549 8.93598 45.0989 8.99113Z" fill="var(--fill-0, #F7F1DE)"/>
<path fill-rule="evenodd" clip-rule="evenodd" d="M68.6577 8.99108C68.5051 9.19662 68.9605 9.46148 69.09 9.49824C69.3214 9.56341 69.5935 9.54836 69.8242 9.47901C70.268 9.33697 70.8031 9.02031 71.0196 8.58667C71.6999 7.20304 70.9906 5.73919 69.5935 5.25124C67.4432 4.49759 65.3144 5.77344 63.7929 7.2164C63.3424 7.6375 62.9516 8.10875 62.5368 8.56913C62.3892 8.73206 62.2415 8.89415 62.0864 9.05207C61.9843 9.15651 61.9163 9.26427 61.762 9.24004C61.4251 9.18657 61.6002 8.90917 61.713 8.74206C61.8607 8.51981 62.0158 8.3051 62.1751 8.09287C62.5003 7.66508 62.8504 7.25734 63.2237 6.87885C64.6225 5.47182 66.9877 4.10157 69.0244 4.24528C69.5579 4.28956 70.2448 4.46084 70.6836 4.78085C71.6999 5.52363 72.3976 6.69337 72.0965 7.99261C71.6294 10.0113 68.7473 11.354 67.6406 9.00612C67.1901 8.0578 68.0422 6.69335 69.1489 7.03174C69.6043 7.16542 69.8831 7.66677 69.8831 8.12714C69.8831 8.43712 69.7354 8.68025 69.4616 8.81728C69.3322 8.87911 69.1912 8.91505 69.0551 8.93845C68.9829 8.95015 68.7009 8.93593 68.6577 8.99108Z" fill="var(--fill-0, #F7F1DE)"/>
<path fill-rule="evenodd" clip-rule="evenodd" d="M58.1734 20.9744C58.1734 20.25 57.5935 19.6685 56.8784 19.6685C56.1624 19.6685 55.5867 20.2492 55.5867 20.9744C55.5867 21.6921 56.1616 22.2753 56.8784 22.2753C57.5935 22.2753 58.1734 21.6921 58.1734 20.9744Z" fill="var(--fill-0, #F7F1DE)"/>
<path fill-rule="evenodd" clip-rule="evenodd" d="M62.0175 0.794592C61.7271 2.03619 60.8071 2.99953 59.9675 3.90023C59.0632 4.86109 58.193 5.85538 57.618 7.05269C57.453 7.40194 57.3277 7.87652 56.8789 7.96007C56.435 7.87652 56.3039 7.40194 56.138 7.05269C55.5631 5.85454 54.6928 4.86109 53.7935 3.90023C52.9465 2.99953 52.0356 2.03702 51.7386 0.794592C51.6539 0.448683 51.7875 0.0977555 52.155 0.0158737C52.9656 -0.163765 53.8922 1.24159 54.2905 1.79137C54.8886 2.62523 55.3797 3.53429 55.9348 4.39572C56.1778 4.77588 56.367 5.18193 56.878 5.18193C57.3849 5.18193 57.5766 4.77588 57.8196 4.39572C58.3755 3.53429 58.86 2.62523 59.4639 1.79137C59.8613 1.24159 60.7897 -0.163765 61.5994 0.0158737C61.9685 0.0977555 62.0996 0.448683 62.0175 0.794592Z" fill="var(--fill-0, #F7F1DE)"/>
<path fill-rule="evenodd" clip-rule="evenodd" d="M55.1986 20.8174C55.1903 20.6494 55.1439 20.4865 55.0476 20.3328C54.9605 20.1907 54.8236 20.0587 54.6395 19.9626C53.7692 19.4847 52.8052 20.6854 53.4341 21.444C50.0343 21.3279 47.3953 20.2267 44.9081 17.9373C42.8241 16.0148 43.6114 13.4856 41.2918 13.5625C41.3748 14.3345 42.0791 15.4524 41.2512 15.9746C40.6596 16.3465 39.4932 15.7558 38.9813 15.48C38.16 15.0397 37.1728 14.2886 36.9123 13.3361C36.3788 11.4185 39.1431 10.2922 39.1323 12.1446C39.1323 12.0644 38.0173 12.0568 38.1667 12.7938C38.2554 13.2249 39.0137 13.4906 39.3804 13.4238C40.1212 13.2851 40.7476 12.4379 40.7011 11.6942C40.4514 8.31454 34.9054 9.61713 34.8449 12.5883C34.7752 16.0432 38.4048 18.0668 42.7312 19.9317C44.5248 20.7088 50.9352 23.1761 54.3748 22.1425C54.9116 21.9813 55.2327 21.3463 55.1986 20.8174Z" fill="var(--fill-0, #F7F1DE)"/>
<path fill-rule="evenodd" clip-rule="evenodd" d="M58.796 20.8174C58.801 20.6494 58.8508 20.4865 58.9453 20.3328C59.0325 20.1907 59.1693 20.0587 59.3519 19.9626C60.2221 19.4847 61.1895 20.6854 60.5606 21.444C63.9571 21.3279 66.5994 20.2267 69.0849 17.9373C71.1689 16.0148 70.3816 13.4856 72.7029 13.5625C72.6182 14.3345 71.9139 15.4524 72.7418 15.9746C73.335 16.3465 74.4998 15.7558 75.0084 15.48C75.8313 15.0397 76.8219 14.2886 77.0824 13.3361C77.6158 11.4185 74.8499 10.2922 74.8607 12.1446C74.8607 12.0644 75.9757 12.0568 75.8247 12.7938C75.7376 13.2249 74.9785 13.4906 74.6126 13.4238C73.8734 13.2851 73.2454 12.4379 73.2935 11.6942C73.5399 8.31454 79.0876 9.61713 79.1481 12.5883C79.2195 16.0432 75.5899 18.0668 71.2618 19.9317C69.4682 20.7088 63.0578 23.1761 59.6165 22.1425C59.0814 21.9813 58.7603 21.3463 58.796 20.8174Z" fill="var(--fill-0, #F7F1DE)"/>
<path fill-rule="evenodd" clip-rule="evenodd" d="M55.9312 0.950838C55.9785 0.906555 56.0382 0.872259 56.1013 0.848028C56.4348 0.72437 56.7409 1.07198 56.9018 1.34938C57.0313 1.05694 57.3407 0.662551 57.6535 0.806262C58.2691 1.08032 57.9729 1.8423 57.7364 2.25171C57.6137 2.46561 57.1275 3.53427 56.8678 3.53427C56.575 3.53427 56.1502 2.58259 55.9835 2.14895C55.8292 1.76712 55.5471 1.2792 55.9312 0.950838Z" fill="var(--fill-0, #F7F1DE)"/>
<path d="M94.8875 18.5311C94.5184 18.5205 95.5289 17.9752 96.0995 17.1777C96.704 16.3365 95.6936 14.7471 94.3458 15.1319C93.0014 15.5178 91.0586 17.0535 88.4881 19.0339C85.9153 21.0131 83.7343 22.2256 80.5954 21.1608C77.4577 20.0982 78.2338 18.0585 79.0133 17.4087C79.7882 16.7588 81.3449 16.846 81.4621 18.1189C81.5838 19.3884 80.6265 19.0921 79.9971 19.3281C79.3693 19.5652 80.5077 20.5702 81.9992 20.5109C83.4965 20.4511 85.3492 19.9802 86.2759 19.2397C87.2003 18.5026 87.7732 17.4394 87.5439 15.6173C87.3141 13.7952 87.3616 12.9323 86.6671 13.1124C85.9759 13.2947 86.4825 14.388 85.5162 14.4339C84.55 14.4775 84.3666 14.4775 84.3202 14.7974C84.2737 15.1162 84.2273 16.119 84.5035 16.1649C84.7798 16.2085 84.9638 16.5714 85.1959 16.5714C85.1959 16.5714 84.4571 17.03 83.6284 16.1649C82.8014 15.2974 83.3986 14.8422 83.6284 14.5251C83.6284 14.5251 82.3395 13.9306 82.2919 13.5201C82.2466 13.1118 83.2593 12.1107 83.8605 11.9742C84.4577 11.8366 85.0566 11.8825 85.0566 11.8825C85.0566 11.8825 85.1483 11.2433 84.4571 11.1538C83.766 11.061 82.6163 10.3781 82.6163 9.10351C82.6163 7.8267 83.6278 7.69249 83.6742 7.32729C83.7207 6.96377 84.7345 5.82397 85.6079 6.5527C86.4825 7.28143 85.1478 7.00905 84.55 7.1897C83.9483 7.37425 84.1345 7.96653 84.6417 8.28307C85.1483 8.60074 86.9897 8.60075 87.4058 9.55989C87.8202 10.5146 88.3755 9.69411 88.3755 9.14939C88.3755 8.60074 89.3417 8.0549 89.8948 7.87482C90.4478 7.6925 90.4948 7.46431 89.9876 6.46378C89.481 5.46101 90.171 5.59636 90.6324 5.91458C91.0926 6.2356 91.2771 7.23612 91.7368 7.55658C92.1981 7.87536 92.7042 9.06046 91.6915 9.96928C90.6765 10.8781 89.2195 11.0319 88.7892 11.2746C88.3579 11.5184 88.8487 12.6717 88.8487 13.5827C88.8487 14.4938 88.3579 15.1621 88.3579 15.5273C88.3579 15.8908 89.2172 16.0714 88.8487 17.4081C88.8487 17.4081 91.4911 15.1022 92.5361 14.1912C93.5788 13.2779 94.6866 12.6118 96.3446 12.4295C98.002 12.2472 99.844 12.7941 98.7396 13.218C97.6329 13.6431 97.5022 13.8153 97.5022 13.8153C97.5022 13.8153 98.5947 13.765 99.0844 14.2533C99.5751 14.737 100.125 15.199 99.7829 16.5569C99.4908 17.7291 99.8435 15.4048 97.8792 15.8281C97.8792 15.8281 98.34 18.6195 94.8875 18.5311Z" fill="var(--fill-0, #F7F1DE)"/>
<path d="M112.413 13.0086C112.001 12.0448 109.434 11.7463 104.981 15.1645C103.13 16.5847 101.366 18.128 99.4288 19.4302C97.7506 20.5542 95.8579 21.5445 93.8011 21.6114C93.3037 21.6277 92.8091 21.5883 92.3217 21.4984C91.999 21.4422 91.444 21.4383 91.6305 21.9727C91.8125 22.4943 92.8945 22.392 93.3132 22.3667C94.37 22.3021 95.4197 22.1189 96.4525 21.8806C100.603 20.9341 102.077 18.6192 103.411 18.1145C104.743 17.6053 107.286 17.1608 108.964 17.702C110.643 18.2455 111.327 19.1576 112.027 20.3002C112.727 21.445 115.031 22.492 113.449 19.7185C111.959 17.109 107.154 15.4663 104.168 16.9674C104.168 16.9674 107.794 13.9534 110.344 14.2771C111.675 14.4457 112.752 13.8089 112.413 13.0086Z" fill="var(--fill-0, #F7F1DE)"/>
</g>
</g>
<defs>
<filter id="filter0_ii_0_86" x="-0.399929" y="0.000127898" width="114.793" height="22.7916" filterUnits="userSpaceOnUse" color-interpolation-filters="sRGB">
<feFlood flood-opacity="0" result="BackgroundImageFix"/>
<feBlend mode="normal" in="SourceGraphic" in2="BackgroundImageFix" result="shape"/>
<feColorMatrix in="SourceAlpha" type="matrix" values="0 0 0 0 0 0 0 0 0 0 0 0 0 0 0 0 0 0 127 0" result="hardAlpha"/>
<feOffset dx="0.4" dy="0.4"/>
<feGaussianBlur stdDeviation="0.5"/>
<feComposite in2="hardAlpha" operator="arithmetic" k2="-1" k3="1"/>
<feColorMatrix type="matrix" values="0 0 0 0 0.960784 0 0 0 0 0.937255 0 0 0 0 0.85098 0 0 0 0.05 0"/>
<feBlend mode="normal" in2="shape" result="effect1_innerShadow_0_86"/>
<feColorMatrix in="SourceAlpha" type="matrix" values="0 0 0 0 0 0 0 0 0 0 0 0 0 0 0 0 0 0 127 0" result="hardAlpha"/>
<feOffset dx="-0.4" dy="0.4"/>
<feGaussianBlur stdDeviation="0.5"/>
<feComposite in2="hardAlpha" operator="arithmetic" k2="-1" k3="1"/>
<feColorMatrix type="matrix" values="0 0 0 0 0.960784 0 0 0 0 0.937255 0 0 0 0 0.85098 0 0 0 1 0"/>
<feBlend mode="normal" in2="effect1_innerShadow_0_86" result="effect2_innerShadow_0_86"/>
</filter>
</defs>
</svg>
