<svg preserveAspectRatio="none" width="100%" height="100%" overflow="visible" style="display: block;" viewBox="0 0 176 2" fill="none" xmlns="http://www.w3.org/2000/svg">
<path id="Vector 44" d="M167.37 0.00147778C167.58 -0.0105162 167.876 0.0543361 168.123 0.0577524C169.16 0.0727493 169.544 0.117705 170.482 0.143202C171.873 0.181074 176 0.0958364 176 0.546387C176 0.546398 176 0.54641 176 0.546421C176 0.550838 176 0.555307 175.999 0.559829C175.984 0.645663 175.633 0.739367 175.581 0.836441C175.529 0.933551 175.568 1.56048 175.07 1.59572C174.347 1.64217 172.612 1.48142 172.227 1.48854C171.963 1.49345 171.639 1.55044 171.302 1.56056C170.215 1.59318 169.646 1.5515 168.667 1.70632C168.276 1.62473 167.884 1.54315 167.492 1.46156C166.981 1.49939 166.207 1.3918 165.896 1.39772C165.642 1.4026 165.492 1.46711 165.227 1.47011C164.929 1.47384 164.472 1.4042 163.931 1.41469C163.043 1.43156 162.885 1.59986 162.352 1.62123C161.8 1.64335 160.941 1.55188 160.236 1.6111C160.148 1.62961 160.059 1.64813 159.971 1.66664C160.034 1.70851 160.097 1.75038 160.161 1.79225C159.806 1.81174 159.653 1.72594 159.327 1.72438C158.943 1.72251 158.747 1.80386 158.489 1.80348C158.277 1.80311 157.991 1.73787 157.716 1.74196C157.316 1.74758 157.404 1.84177 157.189 1.85939C157.103 1.86624 155.515 1.91821 155.425 1.91896C154.744 1.92268 154.685 1.79376 154.142 1.78249C152.635 1.75174 151.089 1.85591 149.695 1.89528C149.073 1.91289 148.424 1.9054 147.803 1.88478C148.78 1.55485 146.618 1.29807 147.427 1.81435C146.736 1.7409 146.247 1.88027 145.592 1.85671C145.169 1.84133 144.876 1.76975 144.272 1.77162C143.199 1.77541 142.026 1.97889 141.718 1.6111C140.459 1.67594 139.368 1.54253 138.915 1.8672C138.59 1.88704 137.758 1.69365 137.394 1.66738C137.05 1.64263 134.408 1.55531 133.975 1.55043C133.543 1.54556 132.786 1.54026 132.422 1.56874C131.965 1.60399 131.645 1.9407 130.831 1.54701C129.884 1.57887 129.547 1.56761 128.667 1.52187C128.507 1.5136 128.489 1.45515 128.396 1.45509C128.204 1.45509 127.878 1.49829 127.535 1.50356C126.972 1.51218 126.651 1.3892 126.714 1.57704C126.342 1.60854 125.971 1.64003 125.6 1.67153C125.469 1.63527 125.339 1.59902 125.209 1.56276C125.01 1.60227 124.812 1.64178 124.613 1.68129C124.847 1.40946 123.449 1.56987 123.903 1.72585C123.183 1.66961 122.464 1.61338 121.744 1.55715C121.844 1.24821 120.164 1.52149 120.305 1.68947C120.223 1.68923 120.14 1.68898 120.058 1.68874C119.337 1.60662 118.675 1.67379 117.796 1.61867C116.917 1.56356 117 1.53347 116.733 1.39137C116.526 1.39951 116.319 1.40765 116.112 1.41579C115.027 1.80535 115.219 1.13087 113.361 1.4297C112.767 1.18487 111.304 1.31347 110.334 1.38771C110.221 1.39633 110.219 1.44386 110.068 1.45851C109.701 1.49375 108.763 1.43266 108.795 1.58595C108.47 1.5416 108.145 1.49725 107.821 1.4529C107.555 1.48077 107.29 1.50864 107.024 1.53652C107.026 1.58437 107.027 1.63222 107.028 1.68007C106.494 1.51698 105.654 1.57966 105.24 1.54067C105.157 1.53276 105.14 1.46675 104.883 1.44875C104.584 1.42738 104.026 1.44691 103.669 1.42629C103.53 1.49941 103.391 1.57253 103.253 1.64565C102.614 1.68531 102.39 1.49231 102.015 1.47731C101.948 1.4747 100.717 1.48857 100.65 1.49269C100.107 1.52535 100.261 1.68977 98.6905 1.65456C98.4108 1.64819 98.1846 1.59129 97.9318 1.58901C97.4853 1.58488 96.1396 1.71392 96.0338 1.83315C95.4922 1.68392 94.043 1.74492 93.6161 1.7018C93.4873 1.68854 93.4582 1.59349 93.0622 1.57326C92.7412 1.55676 91.9144 1.63287 91.5073 1.62013C91.0751 1.60626 90.9208 1.52641 90.7272 1.52077C90.5442 1.51552 90.3755 1.57998 90.1263 1.57961C89.348 1.57736 88.6433 1.47361 88.0282 1.4717C87.1386 1.4687 86.3528 1.65954 85.6085 1.74428C85.4238 1.73191 85.2423 1.69094 85.0486 1.69057C82.6525 1.68457 79.9497 1.6494 77.5465 1.60854C76.4308 1.58977 73.6565 1.33071 74.397 1.76296C74.0093 1.83865 71.1902 1.66438 70.654 1.66176C70.1179 1.65916 69.693 1.73667 69.2716 1.73781C68 1.74118 67.1046 1.68533 65.5568 1.75282C65.1571 1.77047 64.7287 1.86229 64.492 1.86122C64.2069 1.85972 63.9 1.77092 63.5306 1.76528C62.65 1.75253 61.009 1.78174 60.1642 1.76637C60.01 1.76337 59.9558 1.6854 59.7352 1.66103C58.8762 1.5658 57.9132 1.57406 58.0836 1.82302C56.9825 1.68168 55.9639 1.8106 54.9435 1.8185C52.7859 1.83462 48.8558 1.77651 46.9762 1.88112C45.791 1.94711 45.8213 2.05877 44.0764 1.96242C43.6891 1.94105 43.3035 1.91223 42.8337 1.88674C41.7325 1.82675 40.7223 1.62047 39.8829 1.86904C38.6599 1.80457 37.6859 1.85029 36.7784 1.63771C36.6715 1.6887 36.5645 1.73968 36.4575 1.79067C36.3076 1.79193 36.1576 1.79319 36.0077 1.79445C35.9609 1.74583 35.9142 1.6972 35.8674 1.64858C34.7932 1.63548 33.4304 1.83534 32.5212 1.83388C30.9967 1.83163 27.0702 1.75399 25.6247 1.68837C24.8573 1.65353 24.8159 1.75767 24.3766 1.5436C24.2049 1.55849 24.0333 1.57338 23.8616 1.58827C23.7542 1.63515 23.6468 1.68202 23.5393 1.7289C22.5547 1.73077 21.3869 1.65796 20.4489 1.65871C18.7398 1.66021 16.1732 1.78922 14.4568 1.70448C14.0264 1.68312 13.4885 1.58645 13.067 1.58754C12.4537 1.58904 12.3046 1.74946 11.5262 1.75246C10.1847 1.75733 7.68629 1.57097 6.41828 1.58522C6.04167 1.58935 5.86595 1.64904 5.6059 1.65541C4.51546 1.68278 3.6202 1.67792 2.57459 1.77016C1.45187 1.61643 1.54886 1.41801 1.20093 1.21779C0.937241 1.06667 0.128691 0.716469 0.0139131 0.584121C-0.0667115 0.491139 0.234314 0.371528 0.121335 0.269179C1.46644 0.187443 2.03155 0.277423 3.12378 0.421401C5.14086 0.415663 7.15793 0.409926 9.175 0.404189C9.35851 0.460056 9.54203 0.515924 9.72554 0.571792C9.72554 0.571914 9.72554 0.572036 9.72554 0.572158C10.5002 0.636633 10.8285 0.492756 11.2462 0.460097C15.2457 0.147394 23.1176 0.392137 27.5207 0.427382C28.4695 0.434878 31.5559 0.359597 32.207 0.450331C32.3755 0.473962 32.4224 0.560108 32.6017 0.563857C34.2039 0.512628 35.8061 0.461399 37.4082 0.41017C40.7029 0.544024 44.1089 0.433478 47.4287 0.412856C56.4104 0.35699 65.3025 0.289085 74.1372 0.309706C75.8446 0.31383 78.0113 0.249288 79.6828 0.290907C80.3804 0.308163 80.6711 0.446503 81.5876 0.343398C81.5972 0.38067 81.6068 0.417942 81.6164 0.455214C82.4162 0.410218 82.9273 0.325409 83.824 0.316786C84.579 0.309663 86.5768 0.304128 87.244 0.318373C87.5901 0.325496 87.4612 0.395142 87.7838 0.394789C88.3362 0.393664 89.5164 0.297379 90.2787 0.297377C90.9692 0.297377 92.1332 0.377604 92.6641 0.365981C94.576 0.324736 96.6585 0.205814 98.6959 0.237684C99.2587 0.246701 99.9826 0.337006 100.159 0.334486C100.503 0.329238 100.606 0.241516 100.837 0.230238C102.012 0.17325 103.843 0.277494 104.994 0.28163C108.746 0.295128 112.721 0.25684 116.457 0.272963C118.817 0.283085 122.739 0.267647 124.918 0.333632C125.388 0.34788 125.263 0.443984 125.657 0.443984C126.095 0.443963 126.332 0.379041 126.536 0.373793C127.952 0.337047 131.076 0.271421 132.412 0.337782C132.666 0.350524 132.851 0.425825 133.003 0.425551C133.08 0.425551 133.254 0.374163 133.497 0.36891C135.634 0.322417 137.193 0.352387 139.288 0.370009C143.3 0.403375 147.949 0.307774 152.163 0.359511C153.081 0.370759 153.711 0.519702 153.84 0.518203C154.124 0.515198 154.305 0.415018 154.879 0.390273C156.787 0.308935 159.357 0.415836 161.172 0.365614C162.068 0.340871 163.301 0.2137 164.183 0.18556C164.888 0.163066 166.552 0.212951 166.865 0.157118C167.055 0.123385 167.143 0.0150412 167.37 0.00147778ZM143.628 1.68801C143.753 1.51478 142.434 1.65874 142.929 1.75173C143.04 1.77266 143.595 1.73297 143.628 1.68801ZM81.842 1.38722C81.8541 1.4367 81.8662 1.48618 81.8783 1.53566C82.0515 1.51507 82.2247 1.49448 82.3979 1.47389C82.3006 1.44415 82.2032 1.4144 82.1059 1.38466C82.0179 1.38551 81.93 1.38637 81.842 1.38722Z" fill="var(--stroke-0, #B8902A)"/>
</svg>
